<?xml version="1.0" standalone="no"?>
 <!DOCTYPE svg PUBLIC "-//W3C//DTD SVG 1.1//EN" 
 "http://www.w3.org/Graphics/SVG/1.1/DTD/svg11.dtd"> 
<svg xmlns="http://www.w3.org/2000/svg" version="1.1" 
    width="29.7002cm" height="21.0007cm" viewBox="0 0 116930 82680 ">
<title>SVG Picture created as tb-for-ppt.svg date 2023/03/28 14:10:54 </title>
  <desc>Picture generated by Eeschema-SVG </desc>
<g style="fill:#000000; fill-opacity:1;stroke:#000000; stroke-opacity:1;
stroke-linecap:round; stroke-linejoin:round; "
 transform="translate(0 0) scale(1 1)">
</g>
<g style="fill:#000000; fill-opacity:0.0; 
stroke:#000000; stroke-width:60; stroke-opacity:1; 
stroke-linecap:round; stroke-linejoin:round;">
</g>
<g style="fill:#840084; fill-opacity:0.0; 
stroke:#840084; stroke-width:60; stroke-opacity:1; 
stroke-linecap:round; stroke-linejoin:round;">
<path d="M42000 33500
L66000 33500
L66000 50500
L42000 50500
L42000 33500
" />
</g>
<g style="fill:#008484; fill-opacity:0.0; 
stroke:#008484; stroke-width:60; stroke-opacity:1; 
stroke-linecap:round; stroke-linejoin:round;">
</g>
<g style="fill:#000000; fill-opacity:0.0; 
stroke:#000000; stroke-width:60; stroke-opacity:1; 
stroke-linecap:round; stroke-linejoin:round;">
<text x="42000" y="33460"
textLength="8630" font-size="660" lengthAdjust="spacingAndGlyphs"
text-anchor="start" opacity="0">Sheet: Sheet64228121</text>
<path d="M42120 33410
L42190 33430
L42310 33430
L42360 33410
L42380 33380
L42410 33340
L42410 33290
L42380 33240
L42360 33220
L42310 33190
L42220 33170
L42170 33150
L42140 33120
L42120 33070
L42120 33030
L42140 32980
L42170 32960
L42220 32930
L42330 32930
L42410 32960
" />
<path d="M42620 33430
L42620 32930
" />
<path d="M42830 33430
L42830 33170
L42810 33120
L42760 33100
L42690 33100
L42640 33120
L42620 33150
" />
<path d="M43260 33410
L43220 33430
L43120 33430
L43070 33410
L43050 33360
L43050 33170
L43070 33120
L43120 33100
L43220 33100
L43260 33120
L43290 33170
L43290 33220
L43050 33260
" />
<path d="M43690 33410
L43640 33430
L43550 33430
L43500 33410
L43480 33360
L43480 33170
L43500 33120
L43550 33100
L43640 33100
L43690 33120
L43720 33170
L43720 33220
L43480 33260
" />
<path d="M43860 33100
L44050 33100
" />
<path d="M43930 32930
L43930 33360
L43950 33410
L44000 33430
L44050 33430
" />
<path d="M44220 33380
L44240 33410
L44220 33430
L44190 33410
L44220 33380
L44220 33430
" />
<path d="M44220 33120
L44240 33150
L44220 33170
L44190 33150
L44220 33120
L44220 33170
" />
<path d="M44810 33410
L44880 33430
L45000 33430
L45050 33410
L45070 33380
L45100 33340
L45100 33290
L45070 33240
L45050 33220
L45000 33190
L44910 33170
L44860 33150
L44830 33120
L44810 33070
L44810 33030
L44830 32980
L44860 32960
L44910 32930
L45030 32930
L45100 32960
" />
<path d="M45310 33430
L45310 32930
" />
<path d="M45530 33430
L45530 33170
L45500 33120
L45450 33100
L45380 33100
L45330 33120
L45310 33150
" />
<path d="M45950 33410
L45910 33430
L45810 33430
L45760 33410
L45740 33360
L45740 33170
L45760 33120
L45810 33100
L45910 33100
L45950 33120
L45980 33170
L45980 33220
L45740 33260
" />
<path d="M46380 33410
L46330 33430
L46240 33430
L46190 33410
L46170 33360
L46170 33170
L46190 33120
L46240 33100
L46330 33100
L46380 33120
L46410 33170
L46410 33220
L46170 33260
" />
<path d="M46550 33100
L46740 33100
" />
<path d="M46620 32930
L46620 33360
L46640 33410
L46690 33430
L46740 33430
" />
<path d="M47120 32930
L47030 32930
L46980 32960
L46950 32980
L46910 33050
L46880 33150
L46880 33340
L46910 33380
L46930 33410
L46980 33430
L47070 33430
L47120 33410
L47140 33380
L47170 33340
L47170 33220
L47140 33170
L47120 33150
L47070 33120
L46980 33120
L46930 33150
L46910 33170
L46880 33220
" />
<path d="M47600 33100
L47600 33430
" />
<path d="M47480 32910
L47360 33260
L47670 33260
" />
<path d="M47830 32980
L47860 32960
L47910 32930
L48030 32930
L48070 32960
L48100 32980
L48120 33030
L48120 33070
L48100 33150
L47810 33430
L48120 33430
" />
<path d="M48310 32980
L48330 32960
L48380 32930
L48500 32930
L48550 32960
L48570 32980
L48600 33030
L48600 33070
L48570 33150
L48290 33430
L48600 33430
" />
<path d="M48880 33150
L48830 33120
L48810 33100
L48790 33050
L48790 33030
L48810 32980
L48830 32960
L48880 32930
L48980 32930
L49030 32960
L49050 32980
L49070 33030
L49070 33050
L49050 33100
L49030 33120
L48980 33150
L48880 33150
L48830 33170
L48810 33190
L48790 33240
L48790 33340
L48810 33380
L48830 33410
L48880 33430
L48980 33430
L49030 33410
L49050 33380
L49070 33340
L49070 33240
L49050 33190
L49030 33170
L48980 33150
" />
<path d="M49550 33430
L49260 33430
" />
<path d="M49410 33430
L49410 32930
L49360 33000
L49310 33050
L49260 33070
" />
<path d="M49740 32980
L49760 32960
L49810 32930
L49930 32930
L49980 32960
L50000 32980
L50030 33030
L50030 33070
L50000 33150
L49720 33430
L50030 33430
" />
<path d="M50500 33430
L50220 33430
" />
<path d="M50360 33430
L50360 32930
L50310 33000
L50260 33050
L50220 33070
" />
</g>
<g style="fill:#848400; fill-opacity:0.0; 
stroke:#848400; stroke-width:60; stroke-opacity:1; 
stroke-linecap:round; stroke-linejoin:round;">
</g>
<g style="fill:#000000; fill-opacity:0.0; 
stroke:#000000; stroke-width:60; stroke-opacity:1; 
stroke-linecap:round; stroke-linejoin:round;">
<text x="42000" y="51040"
textLength="9420" font-size="660" lengthAdjust="spacingAndGlyphs"
text-anchor="start" opacity="0">File: ../HComparator.sch</text>
<path d="M42310 50750
L42140 50750
" />
<path d="M42140 51010
L42140 50510
L42380 50510
" />
<path d="M42570 51010
L42570 50680
" />
<path d="M42570 50510
L42550 50540
L42570 50560
L42600 50540
L42570 50510
L42570 50560
" />
<path d="M42880 51010
L42830 50990
L42810 50940
L42810 50510
" />
<path d="M43260 50990
L43220 51010
L43120 51010
L43070 50990
L43050 50940
L43050 50750
L43070 50700
L43120 50680
L43220 50680
L43260 50700
L43290 50750
L43290 50800
L43050 50840
" />
<path d="M43500 50960
L43530 50990
L43500 51010
L43480 50990
L43500 50960
L43500 51010
" />
<path d="M43500 50700
L43530 50730
L43500 50750
L43480 50730
L43500 50700
L43500 50750
" />
<path d="M44120 50960
L44140 50990
L44120 51010
L44100 50990
L44120 50960
L44120 51010
" />
<path d="M44360 50960
L44380 50990
L44360 51010
L44330 50990
L44360 50960
L44360 51010
" />
<path d="M44950 50490
L44530 51130
" />
<path d="M45120 51010
L45120 50510
" />
<path d="M45120 50750
L45410 50750
" />
<path d="M45410 51010
L45410 50510
" />
<path d="M45930 50960
L45910 50990
L45830 51010
L45790 51010
L45720 50990
L45670 50940
L45640 50890
L45620 50800
L45620 50730
L45640 50630
L45670 50580
L45720 50540
L45790 50510
L45830 50510
L45910 50540
L45930 50560
" />
<path d="M46220 51010
L46170 50990
L46140 50960
L46120 50920
L46120 50770
L46140 50730
L46170 50700
L46220 50680
L46290 50680
L46330 50700
L46360 50730
L46380 50770
L46380 50920
L46360 50960
L46330 50990
L46290 51010
L46220 51010
" />
<path d="M46600 51010
L46600 50680
" />
<path d="M46600 50730
L46620 50700
L46670 50680
L46740 50680
L46790 50700
L46810 50750
L46810 51010
" />
<path d="M46810 50750
L46830 50700
L46880 50680
L46950 50680
L47000 50700
L47030 50750
L47030 51010
" />
<path d="M47260 50680
L47260 51180
" />
<path d="M47260 50700
L47310 50680
L47410 50680
L47450 50700
L47480 50730
L47500 50770
L47500 50920
L47480 50960
L47450 50990
L47410 51010
L47310 51010
L47260 50990
" />
<path d="M47930 51010
L47930 50750
L47910 50700
L47860 50680
L47760 50680
L47720 50700
" />
<path d="M47930 50990
L47880 51010
L47760 51010
L47720 50990
L47690 50940
L47690 50890
L47720 50840
L47760 50820
L47880 50820
L47930 50800
" />
<path d="M48170 51010
L48170 50680
" />
<path d="M48170 50770
L48190 50730
L48220 50700
L48260 50680
L48310 50680
" />
<path d="M48690 51010
L48690 50750
L48670 50700
L48620 50680
L48530 50680
L48480 50700
" />
<path d="M48690 50990
L48640 51010
L48530 51010
L48480 50990
L48450 50940
L48450 50890
L48480 50840
L48530 50820
L48640 50820
L48690 50800
" />
<path d="M48860 50680
L49050 50680
" />
<path d="M48930 50510
L48930 50940
L48950 50990
L49000 51010
L49050 51010
" />
<path d="M49290 51010
L49240 50990
L49220 50960
L49190 50920
L49190 50770
L49220 50730
L49240 50700
L49290 50680
L49360 50680
L49410 50700
L49430 50730
L49450 50770
L49450 50920
L49430 50960
L49410 50990
L49360 51010
L49290 51010
" />
<path d="M49670 51010
L49670 50680
" />
<path d="M49670 50770
L49690 50730
L49720 50700
L49760 50680
L49810 50680
" />
<path d="M49980 50960
L50000 50990
L49980 51010
L49950 50990
L49980 50960
L49980 51010
" />
<path d="M50190 50990
L50240 51010
L50330 51010
L50380 50990
L50410 50940
L50410 50920
L50380 50870
L50330 50840
L50260 50840
L50220 50820
L50190 50770
L50190 50750
L50220 50700
L50260 50680
L50330 50680
L50380 50700
" />
<path d="M50830 50990
L50790 51010
L50690 51010
L50640 50990
L50620 50960
L50600 50920
L50600 50770
L50620 50730
L50640 50700
L50690 50680
L50790 50680
L50830 50700
" />
<path d="M51050 51010
L51050 50510
" />
<path d="M51260 51010
L51260 50750
L51240 50700
L51190 50680
L51120 50680
L51070 50700
L51050 50730
" />
</g>
<g style="fill:#840084; fill-opacity:0.0; 
stroke:#840084; stroke-width:60; stroke-opacity:1; 
stroke-linecap:round; stroke-linejoin:round;">
</g>
<g style="fill:#848400; fill-opacity:0.0; 
stroke:#848400; stroke-width:60; stroke-opacity:1; 
stroke-linecap:round; stroke-linejoin:round;">
<text x="42600" y="36250"
textLength="1490" font-size="660" lengthAdjust="spacingAndGlyphs"
text-anchor="start" opacity="0">VDD</text>
<path d="M42670 35720
L42840 36220
L43010 35720
" />
<path d="M43170 36220
L43170 35720
L43290 35720
L43360 35750
L43410 35790
L43430 35840
L43460 35940
L43460 36010
L43430 36100
L43410 36150
L43360 36200
L43290 36220
L43170 36220
" />
<path d="M43670 36220
L43670 35720
L43790 35720
L43860 35750
L43910 35790
L43930 35840
L43960 35940
L43960 36010
L43930 36100
L43910 36150
L43860 36200
L43790 36220
L43670 36220
" />
</g>
<g style="fill:#848400; fill-opacity:0.0; 
stroke:#848400; stroke-width:100; stroke-opacity:1; 
stroke-linecap:round; stroke-linejoin:round;">
<path style="fill:#848400; fill-opacity:0.0; 
stroke:#848400; stroke-width:100; stroke-opacity:1; 
stroke-linecap:round; stroke-linejoin:round;fill:none"
d="M 42500,36000
42250,35750
42000,35750
42000,36250
42250,36250
Z" /> 
</g>
<g style="fill:#848400; fill-opacity:0.0; 
stroke:#848400; stroke-width:60; stroke-opacity:1; 
stroke-linecap:round; stroke-linejoin:round;">
<text x="42600" y="40250"
textLength="990" font-size="660" lengthAdjust="spacingAndGlyphs"
text-anchor="start" opacity="0">VP</text>
<path d="M42670 39720
L42840 40220
L43010 39720
" />
<path d="M43170 40220
L43170 39720
L43360 39720
L43410 39750
L43430 39770
L43460 39820
L43460 39890
L43430 39940
L43410 39960
L43360 39980
L43170 39980
" />
</g>
<g style="fill:#848400; fill-opacity:0.0; 
stroke:#848400; stroke-width:100; stroke-opacity:1; 
stroke-linecap:round; stroke-linejoin:round;">
<path style="fill:#848400; fill-opacity:0.0; 
stroke:#848400; stroke-width:100; stroke-opacity:1; 
stroke-linecap:round; stroke-linejoin:round;fill:none"
d="M 42500,40000
42250,39750
42000,39750
42000,40250
42250,40250
Z" /> 
</g>
<g style="fill:#848400; fill-opacity:0.0; 
stroke:#848400; stroke-width:60; stroke-opacity:1; 
stroke-linecap:round; stroke-linejoin:round;">
<text x="42600" y="44250"
textLength="1060" font-size="660" lengthAdjust="spacingAndGlyphs"
text-anchor="start" opacity="0">VM</text>
<path d="M42670 43720
L42840 44220
L43010 43720
" />
<path d="M43170 44220
L43170 43720
L43340 44080
L43510 43720
L43510 44220
" />
</g>
<g style="fill:#848400; fill-opacity:0.0; 
stroke:#848400; stroke-width:100; stroke-opacity:1; 
stroke-linecap:round; stroke-linejoin:round;">
<path style="fill:#848400; fill-opacity:0.0; 
stroke:#848400; stroke-width:100; stroke-opacity:1; 
stroke-linecap:round; stroke-linejoin:round;fill:none"
d="M 42500,44000
42250,43750
42000,43750
42000,44250
42250,44250
Z" /> 
</g>
<g style="fill:#848400; fill-opacity:0.0; 
stroke:#848400; stroke-width:60; stroke-opacity:1; 
stroke-linecap:round; stroke-linejoin:round;">
<text x="42600" y="49250"
textLength="1440" font-size="660" lengthAdjust="spacingAndGlyphs"
text-anchor="start" opacity="0">VSS</text>
<path d="M42670 48720
L42840 49220
L43010 48720
" />
<path d="M43150 49200
L43220 49220
L43340 49220
L43390 49200
L43410 49170
L43430 49130
L43430 49080
L43410 49030
L43390 49010
L43340 48980
L43240 48960
L43200 48940
L43170 48910
L43150 48860
L43150 48820
L43170 48770
L43200 48750
L43240 48720
L43360 48720
L43430 48750
" />
<path d="M43630 49200
L43700 49220
L43820 49220
L43860 49200
L43890 49170
L43910 49130
L43910 49080
L43890 49030
L43860 49010
L43820 48980
L43720 48960
L43670 48940
L43650 48910
L43630 48860
L43630 48820
L43650 48770
L43670 48750
L43720 48720
L43840 48720
L43910 48750
" />
</g>
<g style="fill:#848400; fill-opacity:0.0; 
stroke:#848400; stroke-width:100; stroke-opacity:1; 
stroke-linecap:round; stroke-linejoin:round;">
<path style="fill:#848400; fill-opacity:0.0; 
stroke:#848400; stroke-width:100; stroke-opacity:1; 
stroke-linecap:round; stroke-linejoin:round;fill:none"
d="M 42500,49000
42250,48750
42000,48750
42000,49250
42250,49250
Z" /> 
</g>
<g style="fill:#848400; fill-opacity:0.0; 
stroke:#848400; stroke-width:60; stroke-opacity:1; 
stroke-linecap:round; stroke-linejoin:round;">
<text x="65400" y="41750"
textLength="1680" font-size="660" lengthAdjust="spacingAndGlyphs"
text-anchor="end" opacity="0">Vout</text>
<path d="M63790 41220
L63960 41720
L64130 41220
" />
<path d="M64370 41720
L64320 41700
L64290 41670
L64270 41630
L64270 41480
L64290 41440
L64320 41410
L64370 41390
L64440 41390
L64480 41410
L64510 41440
L64530 41480
L64530 41630
L64510 41670
L64480 41700
L64440 41720
L64370 41720
" />
<path d="M64960 41390
L64960 41720
" />
<path d="M64750 41390
L64750 41650
L64770 41700
L64820 41720
L64890 41720
L64940 41700
L64960 41670
" />
<path d="M65130 41390
L65320 41390
" />
<path d="M65200 41220
L65200 41650
L65220 41700
L65270 41720
L65320 41720
" />
</g>
<g style="fill:#848400; fill-opacity:0.0; 
stroke:#848400; stroke-width:100; stroke-opacity:1; 
stroke-linecap:round; stroke-linejoin:round;">
<path style="fill:#848400; fill-opacity:0.0; 
stroke:#848400; stroke-width:100; stroke-opacity:1; 
stroke-linecap:round; stroke-linejoin:round;fill:none"
d="M 66000,41500
65750,41250
65500,41250
65500,41750
65750,41750
Z" /> 
</g>
<g style="fill:#848400; fill-opacity:0.0; 
stroke:#848400; stroke-width:60; stroke-opacity:1; 
stroke-linecap:round; stroke-linejoin:round;">
<text x="65400" y="46750"
textLength="1420" font-size="660" lengthAdjust="spacingAndGlyphs"
text-anchor="end" opacity="0">TP1</text>
<path d="M64060 46220
L64340 46220
" />
<path d="M64200 46720
L64200 46220
" />
<path d="M64510 46720
L64510 46220
L64700 46220
L64750 46250
L64770 46270
L64790 46320
L64790 46390
L64770 46440
L64750 46460
L64700 46480
L64510 46480
" />
<path d="M65270 46720
L64980 46720
" />
<path d="M65130 46720
L65130 46220
L65080 46290
L65030 46340
L64980 46360
" />
</g>
<g style="fill:#848400; fill-opacity:0.0; 
stroke:#848400; stroke-width:100; stroke-opacity:1; 
stroke-linecap:round; stroke-linejoin:round;">
<path style="fill:#848400; fill-opacity:0.0; 
stroke:#848400; stroke-width:100; stroke-opacity:1; 
stroke-linecap:round; stroke-linejoin:round;fill:none"
d="M 66000,46500
65750,46250
65500,46250
65500,46750
65750,46750
Z" /> 
</g>
<g style="fill:#848400; fill-opacity:0.0; 
stroke:#848400; stroke-width:60; stroke-opacity:1; 
stroke-linecap:round; stroke-linejoin:round;">
<text x="65400" y="48750"
textLength="1420" font-size="660" lengthAdjust="spacingAndGlyphs"
text-anchor="end" opacity="0">TP2</text>
<path d="M64060 48220
L64340 48220
" />
<path d="M64200 48720
L64200 48220
" />
<path d="M64510 48720
L64510 48220
L64700 48220
L64750 48250
L64770 48270
L64790 48320
L64790 48390
L64770 48440
L64750 48460
L64700 48480
L64510 48480
" />
<path d="M64980 48270
L65010 48250
L65060 48220
L65170 48220
L65220 48250
L65250 48270
L65270 48320
L65270 48360
L65250 48440
L64960 48720
L65270 48720
" />
</g>
<g style="fill:#848400; fill-opacity:0.0; 
stroke:#848400; stroke-width:100; stroke-opacity:1; 
stroke-linecap:round; stroke-linejoin:round;">
<path style="fill:#848400; fill-opacity:0.0; 
stroke:#848400; stroke-width:100; stroke-opacity:1; 
stroke-linecap:round; stroke-linejoin:round;fill:none"
d="M 66000,48500
65750,48250
65500,48250
65500,48750
65750,48750
Z" /> 
</g>
<g style="fill:#848400; fill-opacity:0.0; 
stroke:#848400; stroke-width:0; stroke-opacity:1; 
stroke-linecap:round; stroke-linejoin:round;">
<g >
</g>
<g style="fill:#840000; fill-opacity:0.0; 
stroke:#840000; stroke-width:0; stroke-opacity:1; 
stroke-linecap:round; stroke-linejoin:round;">
</g>
<g style="fill:#840000; fill-opacity:0.0; 
stroke:#840000; stroke-width:60; stroke-opacity:1; 
stroke-linecap:round; stroke-linejoin:round;">
<path style="fill:#840000; fill-opacity:0.0; 
stroke:#840000; stroke-width:60; stroke-opacity:1; 
stroke-linecap:round; stroke-linejoin:round;fill:none"
d="M 22200,35500
22500,35000
" /> 
<path style="fill:#840000; fill-opacity:0.0; 
stroke:#840000; stroke-width:60; stroke-opacity:1; 
stroke-linecap:round; stroke-linejoin:round;fill:none"
d="M 22500,36000
22500,35000
" /> 
<path style="fill:#840000; fill-opacity:0.0; 
stroke:#840000; stroke-width:60; stroke-opacity:1; 
stroke-linecap:round; stroke-linejoin:round;fill:none"
d="M 22500,35000
22800,35500
" /> 
</g>
<g style="fill:#008484; fill-opacity:0.0; 
stroke:#008484; stroke-width:60; stroke-opacity:1; 
stroke-linecap:round; stroke-linejoin:round;">
<text x="22650" y="34540"
textLength="1580" font-size="660" lengthAdjust="spacingAndGlyphs"
text-anchor="middle" opacity="0">+5V</text>
<path d="M22000 34320
L22380 34320
" />
<path d="M22190 34510
L22190 34130
" />
<path d="M22860 34010
L22620 34010
L22600 34250
L22620 34230
L22670 34200
L22790 34200
L22840 34230
L22860 34250
L22880 34300
L22880 34420
L22860 34460
L22840 34490
L22790 34510
L22670 34510
L22620 34490
L22600 34460
" />
<path d="M23030 34010
L23190 34510
L23360 34010
" />
</g>
</g>
<g style="fill:#008484; fill-opacity:0.0; 
stroke:#008484; stroke-width:0; stroke-opacity:1; 
stroke-linecap:round; stroke-linejoin:round;">
<g >
</g>
<g style="fill:#840000; fill-opacity:0.0; 
stroke:#840000; stroke-width:0; stroke-opacity:1; 
stroke-linecap:round; stroke-linejoin:round;">
</g>
<g style="fill:#840000; fill-opacity:0.0; 
stroke:#840000; stroke-width:60; stroke-opacity:1; 
stroke-linecap:round; stroke-linejoin:round;">
<path style="fill:#840000; fill-opacity:0.0; 
stroke:#840000; stroke-width:60; stroke-opacity:1; 
stroke-linecap:round; stroke-linejoin:round;fill:none"
d="M 22500,49000
22500,49500
23000,49500
22500,50000
22000,49500
22500,49500
" /> 
</g>
<g style="fill:#008484; fill-opacity:0.0; 
stroke:#008484; stroke-width:60; stroke-opacity:1; 
stroke-linecap:round; stroke-linejoin:round;">
<text x="22550" y="51000"
textLength="1580" font-size="660" lengthAdjust="spacingAndGlyphs"
text-anchor="middle" opacity="0">GND</text>
<path d="M22160 50500
L22120 50470
L22050 50470
L21970 50500
L21930 50540
L21900 50590
L21880 50690
L21880 50760
L21900 50850
L21930 50900
L21970 50950
L22050 50970
L22090 50970
L22160 50950
L22190 50920
L22190 50760
L22090 50760
" />
<path d="M22400 50970
L22400 50470
L22690 50970
L22690 50470
" />
<path d="M22930 50970
L22930 50470
L23050 50470
L23120 50500
L23160 50540
L23190 50590
L23210 50690
L23210 50760
L23190 50850
L23160 50900
L23120 50950
L23050 50970
L22930 50970
" />
</g>
</g>
<g style="fill:#008484; fill-opacity:0.0; 
stroke:#008484; stroke-width:0; stroke-opacity:1; 
stroke-linecap:round; stroke-linejoin:round;">
<g >
</g>
<g style="fill:#840000; fill-opacity:0.0; 
stroke:#840000; stroke-width:0; stroke-opacity:1; 
stroke-linecap:round; stroke-linejoin:round;">
</g>
<g style="fill:#840000; fill-opacity:0.0; 
stroke:#840000; stroke-width:60; stroke-opacity:1; 
stroke-linecap:round; stroke-linejoin:round;">
<path style="fill:#840000; fill-opacity:0.0; 
stroke:#840000; stroke-width:60; stroke-opacity:1; 
stroke-linecap:round; stroke-linejoin:round;fill:none"
d="M 26200,43500
26500,43000
" /> 
<path style="fill:#840000; fill-opacity:0.0; 
stroke:#840000; stroke-width:60; stroke-opacity:1; 
stroke-linecap:round; stroke-linejoin:round;fill:none"
d="M 26500,44000
26500,43000
" /> 
<path style="fill:#840000; fill-opacity:0.0; 
stroke:#840000; stroke-width:60; stroke-opacity:1; 
stroke-linecap:round; stroke-linejoin:round;fill:none"
d="M 26500,43000
26800,43500
" /> 
</g>
<g style="fill:#008484; fill-opacity:0.0; 
stroke:#008484; stroke-width:60; stroke-opacity:1; 
stroke-linecap:round; stroke-linejoin:round;">
<text x="26650" y="42540"
textLength="2060" font-size="660" lengthAdjust="spacingAndGlyphs"
text-anchor="middle" opacity="0">+2V5</text>
<path d="M25760 42320
L26150 42320
" />
<path d="M25950 42510
L25950 42130
" />
<path d="M26360 42060
L26380 42040
L26430 42010
L26550 42010
L26600 42040
L26620 42060
L26650 42110
L26650 42150
L26620 42230
L26340 42510
L26650 42510
" />
<path d="M26790 42010
L26950 42510
L27120 42010
" />
<path d="M27530 42010
L27290 42010
L27260 42250
L27290 42230
L27340 42200
L27450 42200
L27500 42230
L27530 42250
L27550 42300
L27550 42420
L27530 42460
L27500 42490
L27450 42510
L27340 42510
L27290 42490
L27260 42460
" />
</g>
</g>
<g style="fill:#008484; fill-opacity:0.0; 
stroke:#008484; stroke-width:0; stroke-opacity:1; 
stroke-linecap:round; stroke-linejoin:round;">
<g >
</g>
<g style="fill:#840000; fill-opacity:0.0; 
stroke:#840000; stroke-width:0; stroke-opacity:1; 
stroke-linecap:round; stroke-linejoin:round;">
</g>
<g style="fill:#840000; fill-opacity:0.0; 
stroke:#840000; stroke-width:100; stroke-opacity:1; 
stroke-linecap:round; stroke-linejoin:round;">
<rect x="34600" y="37000" width="800" height="2000" rx="0" />
</g>
<g style="fill:#840000; fill-opacity:0.0; 
stroke:#840000; stroke-width:60; stroke-opacity:1; 
stroke-linecap:round; stroke-linejoin:round;">
<path d="M35000 37000
L35000 36500
" />
<path d="M35000 39000
L35000 39500
" />
</g>
<g style="fill:#008484; fill-opacity:0.0; 
stroke:#008484; stroke-width:60; stroke-opacity:1; 
stroke-linecap:round; stroke-linejoin:round;">
<text x="36530" y="37810"
textLength="1660" font-size="660" lengthAdjust="spacingAndGlyphs"
text-anchor="middle" opacity="0">2.2k</text>
<path d="M35820 37330
L35850 37310
L35890 37280
L36010 37280
L36060 37310
L36080 37330
L36110 37380
L36110 37420
L36080 37500
L35800 37780
L36110 37780
" />
<path d="M36320 37730
L36350 37760
L36320 37780
L36300 37760
L36320 37730
L36320 37780
" />
<path d="M36540 37330
L36560 37310
L36610 37280
L36730 37280
L36780 37310
L36800 37330
L36820 37380
L36820 37420
L36800 37500
L36510 37780
L36820 37780
" />
<path d="M37040 37780
L37040 37280
" />
<path d="M37080 37590
L37230 37780
" />
<path d="M37230 37450
L37040 37640
" />
<text x="35980" y="38720"
textLength="560" font-size="660" lengthAdjust="spacingAndGlyphs"
text-anchor="middle" opacity="0">R</text>
<path d="M36130 38690
L35960 38450
" />
<path d="M35840 38690
L35840 38190
L36030 38190
L36080 38220
L36110 38240
L36130 38290
L36130 38360
L36110 38410
L36080 38430
L36030 38450
L35840 38450
" />
</g>
</g>
<g style="fill:#008484; fill-opacity:0.0; 
stroke:#008484; stroke-width:0; stroke-opacity:1; 
stroke-linecap:round; stroke-linejoin:round;">
<g >
</g>
<g style="fill:#840000; fill-opacity:0.0; 
stroke:#840000; stroke-width:0; stroke-opacity:1; 
stroke-linecap:round; stroke-linejoin:round;">
</g>
<g style="fill:#840000; fill-opacity:0.0; 
stroke:#840000; stroke-width:100; stroke-opacity:1; 
stroke-linecap:round; stroke-linejoin:round;">
<rect x="34600" y="41000" width="800" height="2000" rx="0" />
</g>
<g style="fill:#840000; fill-opacity:0.0; 
stroke:#840000; stroke-width:60; stroke-opacity:1; 
stroke-linecap:round; stroke-linejoin:round;">
<path d="M35000 41000
L35000 40500
" />
<path d="M35000 43000
L35000 43500
" />
</g>
<g style="fill:#008484; fill-opacity:0.0; 
stroke:#008484; stroke-width:60; stroke-opacity:1; 
stroke-linecap:round; stroke-linejoin:round;">
<text x="36740" y="41810"
textLength="2080" font-size="660" lengthAdjust="spacingAndGlyphs"
text-anchor="middle" opacity="0">2.2k?</text>
<path d="M35820 41330
L35840 41310
L35890 41280
L36010 41280
L36060 41310
L36080 41330
L36100 41380
L36100 41420
L36080 41500
L35790 41780
L36100 41780
" />
<path d="M36320 41730
L36340 41760
L36320 41780
L36290 41760
L36320 41730
L36320 41780
" />
<path d="M36530 41330
L36560 41310
L36600 41280
L36720 41280
L36770 41310
L36790 41330
L36820 41380
L36820 41420
L36790 41500
L36510 41780
L36820 41780
" />
<path d="M37030 41780
L37030 41280
" />
<path d="M37080 41590
L37220 41780
" />
<path d="M37220 41450
L37030 41640
" />
<path d="M37510 41730
L37530 41760
L37510 41780
L37490 41760
L37510 41730
L37510 41780
" />
<path d="M37410 41310
L37460 41280
L37580 41280
L37630 41310
L37650 41350
L37650 41400
L37630 41450
L37600 41470
L37560 41500
L37530 41520
L37510 41570
L37510 41590
" />
<text x="35980" y="42720"
textLength="560" font-size="660" lengthAdjust="spacingAndGlyphs"
text-anchor="middle" opacity="0">R</text>
<path d="M36130 42690
L35960 42450
" />
<path d="M35840 42690
L35840 42190
L36030 42190
L36080 42220
L36110 42240
L36130 42290
L36130 42360
L36110 42410
L36080 42430
L36030 42450
L35840 42450
" />
</g>
</g>
<g style="fill:#008484; fill-opacity:0.0; 
stroke:#008484; stroke-width:0; stroke-opacity:1; 
stroke-linecap:round; stroke-linejoin:round;">
<g >
</g>
<g style="fill:#840000; fill-opacity:0.0; 
stroke:#840000; stroke-width:0; stroke-opacity:1; 
stroke-linecap:round; stroke-linejoin:round;">
</g>
<g style="fill:#840000; fill-opacity:0.0; 
stroke:#840000; stroke-width:100; stroke-opacity:1; 
stroke-linecap:round; stroke-linejoin:round;">
<rect x="34600" y="45000" width="800" height="2000" rx="0" />
</g>
<g style="fill:#840000; fill-opacity:0.0; 
stroke:#840000; stroke-width:60; stroke-opacity:1; 
stroke-linecap:round; stroke-linejoin:round;">
<path d="M35000 45000
L35000 44500
" />
<path d="M35000 47000
L35000 47500
" />
</g>
<g style="fill:#008484; fill-opacity:0.0; 
stroke:#008484; stroke-width:60; stroke-opacity:1; 
stroke-linecap:round; stroke-linejoin:round;">
<text x="36740" y="45810"
textLength="2080" font-size="660" lengthAdjust="spacingAndGlyphs"
text-anchor="middle" opacity="0">2.2k?</text>
<path d="M35820 45330
L35840 45310
L35890 45280
L36010 45280
L36060 45310
L36080 45330
L36100 45380
L36100 45420
L36080 45500
L35790 45780
L36100 45780
" />
<path d="M36320 45730
L36340 45760
L36320 45780
L36290 45760
L36320 45730
L36320 45780
" />
<path d="M36530 45330
L36560 45310
L36600 45280
L36720 45280
L36770 45310
L36790 45330
L36820 45380
L36820 45420
L36790 45500
L36510 45780
L36820 45780
" />
<path d="M37030 45780
L37030 45280
" />
<path d="M37080 45590
L37220 45780
" />
<path d="M37220 45450
L37030 45640
" />
<path d="M37510 45730
L37530 45760
L37510 45780
L37490 45760
L37510 45730
L37510 45780
" />
<path d="M37410 45310
L37460 45280
L37580 45280
L37630 45310
L37650 45350
L37650 45400
L37630 45450
L37600 45470
L37560 45500
L37530 45520
L37510 45570
L37510 45590
" />
<text x="35980" y="46720"
textLength="560" font-size="660" lengthAdjust="spacingAndGlyphs"
text-anchor="middle" opacity="0">R</text>
<path d="M36130 46690
L35960 46450
" />
<path d="M35840 46690
L35840 46190
L36030 46190
L36080 46220
L36110 46240
L36130 46290
L36130 46360
L36110 46410
L36080 46430
L36030 46450
L35840 46450
" />
</g>
</g>
<g style="fill:#008484; fill-opacity:0.0; 
stroke:#008484; stroke-width:0; stroke-opacity:1; 
stroke-linecap:round; stroke-linejoin:round;">
<g >
</g>
<g style="fill:#840000; fill-opacity:0.0; 
stroke:#840000; stroke-width:0; stroke-opacity:1; 
stroke-linecap:round; stroke-linejoin:round;">
</g>
<g style="fill:#840000; fill-opacity:0.0; 
stroke:#840000; stroke-width:100; stroke-opacity:1; 
stroke-linecap:round; stroke-linejoin:round;">
<rect x="29500" y="43600" width="2000" height="800" rx="0" />
</g>
<g style="fill:#840000; fill-opacity:0.0; 
stroke:#840000; stroke-width:60; stroke-opacity:1; 
stroke-linecap:round; stroke-linejoin:round;">
<path d="M29500 44000
L29000 44000
" />
<path d="M31500 44000
L32000 44000
" />
</g>
<g style="fill:#008484; fill-opacity:0.0; 
stroke:#008484; stroke-width:60; stroke-opacity:1; 
stroke-linecap:round; stroke-linejoin:round;">
<text x="31000" y="43220"
textLength="1660" font-size="660" lengthAdjust="spacingAndGlyphs"
text-anchor="middle" opacity="0">2.2k</text>
<path d="M30290 42740
L30320 42720
L30360 42690
L30480 42690
L30530 42720
L30550 42740
L30580 42790
L30580 42830
L30550 42910
L30270 43190
L30580 43190
" />
<path d="M30790 43140
L30820 43170
L30790 43190
L30770 43170
L30790 43140
L30790 43190
" />
<path d="M31010 42740
L31030 42720
L31080 42690
L31200 42690
L31250 42720
L31270 42740
L31290 42790
L31290 42830
L31270 42910
L30980 43190
L31290 43190
" />
<path d="M31510 43190
L31510 42690
" />
<path d="M31550 43000
L31700 43190
" />
<path d="M31700 42860
L31510 43050
" />
<text x="29500" y="43220"
textLength="560" font-size="660" lengthAdjust="spacingAndGlyphs"
text-anchor="middle" opacity="0">R</text>
<path d="M29650 43190
L29480 42950
" />
<path d="M29360 43190
L29360 42690
L29550 42690
L29600 42720
L29630 42740
L29650 42790
L29650 42860
L29630 42910
L29600 42930
L29550 42950
L29360 42950
" />
</g>
</g>
<g style="fill:#008484; fill-opacity:0.0; 
stroke:#008484; stroke-width:60; stroke-opacity:1; 
stroke-linecap:round; stroke-linejoin:round;">
</g>
<g style="fill:#008400; fill-opacity:0.0; 
stroke:#008400; stroke-width:60; stroke-opacity:1; 
stroke-linecap:round; stroke-linejoin:round;">
<path d="M35000 49000
L42000 49000
" />
<path d="M35000 47500
L35000 49000
" />
<path d="M35000 43500
L35000 44500
" />
<path d="M35000 40000
L35000 40500
" />
<path d="M35000 39500
L35000 40000
" />
<path d="M35000 40000
L42000 40000
" />
<path d="M22500 49000
L35000 49000
" />
<path d="M32000 44000
L42000 44000
" />
<path d="M29000 44000
L26500 44000
" />
<path d="M66000 48500
L73000 48500
" />
<path d="M66000 46500
L73000 46500
" />
<path d="M66000 41500
L73000 41500
" />
<path d="M22500 36000
L35000 36000
" />
<path d="M35000 36000
L42000 36000
" />
<path d="M35000 36500
L35000 36000
" />
</g>
<g style="fill:#840000; fill-opacity:0.0; 
stroke:#840000; stroke-width:60; stroke-opacity:1; 
stroke-linecap:round; stroke-linejoin:round;">
<text x="73100" y="48750"
textLength="1420" font-size="660" lengthAdjust="spacingAndGlyphs"
text-anchor="start" opacity="0">TP2</text>
<path d="M73170 48220
L73460 48220
" />
<path d="M73320 48720
L73320 48220
" />
<path d="M73630 48720
L73630 48220
L73820 48220
L73860 48250
L73890 48270
L73910 48320
L73910 48390
L73890 48440
L73860 48460
L73820 48480
L73630 48480
" />
<path d="M74100 48270
L74130 48250
L74170 48220
L74290 48220
L74340 48250
L74360 48270
L74390 48320
L74390 48360
L74360 48440
L74080 48720
L74390 48720
" />
</g>
<g style="fill:#840000; fill-opacity:0.0; 
stroke:#840000; stroke-width:100; stroke-opacity:1; 
stroke-linecap:round; stroke-linejoin:round;">
<path style="fill:#840000; fill-opacity:0.0; 
stroke:#840000; stroke-width:100; stroke-opacity:1; 
stroke-linecap:round; stroke-linejoin:round;fill:none"
d="M 73000,48500
73000,48940
74590,48940
74840,48500
74590,48060
73000,48060
Z" /> 
</g>
<g style="fill:#840000; fill-opacity:0.0; 
stroke:#840000; stroke-width:60; stroke-opacity:1; 
stroke-linecap:round; stroke-linejoin:round;">
<text x="73100" y="46750"
textLength="1420" font-size="660" lengthAdjust="spacingAndGlyphs"
text-anchor="start" opacity="0">TP1</text>
<path d="M73170 46220
L73460 46220
" />
<path d="M73320 46720
L73320 46220
" />
<path d="M73630 46720
L73630 46220
L73820 46220
L73860 46250
L73890 46270
L73910 46320
L73910 46390
L73890 46440
L73860 46460
L73820 46480
L73630 46480
" />
<path d="M74390 46720
L74100 46720
" />
<path d="M74240 46720
L74240 46220
L74200 46290
L74150 46340
L74100 46360
" />
</g>
<g style="fill:#840000; fill-opacity:0.0; 
stroke:#840000; stroke-width:100; stroke-opacity:1; 
stroke-linecap:round; stroke-linejoin:round;">
<path style="fill:#840000; fill-opacity:0.0; 
stroke:#840000; stroke-width:100; stroke-opacity:1; 
stroke-linecap:round; stroke-linejoin:round;fill:none"
d="M 73000,46500
73000,46940
74590,46940
74840,46500
74590,46060
73000,46060
Z" /> 
</g>
<g style="fill:#840000; fill-opacity:0.0; 
stroke:#840000; stroke-width:60; stroke-opacity:1; 
stroke-linecap:round; stroke-linejoin:round;">
<text x="73100" y="41750"
textLength="1680" font-size="660" lengthAdjust="spacingAndGlyphs"
text-anchor="start" opacity="0">Vout</text>
<path d="M73170 41220
L73340 41720
L73510 41220
" />
<path d="M73740 41720
L73700 41700
L73670 41670
L73650 41630
L73650 41480
L73670 41440
L73700 41410
L73740 41390
L73820 41390
L73860 41410
L73890 41440
L73910 41480
L73910 41630
L73890 41670
L73860 41700
L73820 41720
L73740 41720
" />
<path d="M74340 41390
L74340 41720
" />
<path d="M74130 41390
L74130 41650
L74150 41700
L74200 41720
L74270 41720
L74320 41700
L74340 41670
" />
<path d="M74510 41390
L74700 41390
" />
<path d="M74580 41220
L74580 41650
L74600 41700
L74650 41720
L74700 41720
" />
</g>
<g style="fill:#840000; fill-opacity:0.0; 
stroke:#840000; stroke-width:100; stroke-opacity:1; 
stroke-linecap:round; stroke-linejoin:round;">
<path style="fill:#840000; fill-opacity:0.0; 
stroke:#840000; stroke-width:100; stroke-opacity:1; 
stroke-linecap:round; stroke-linejoin:round;fill:none"
d="M 73000,41500
73000,41940
74850,41940
75100,41500
74850,41060
73000,41060
Z" /> 
</g>
<g style="fill:#840000; fill-opacity:0.0; 
stroke:#840000; stroke-width:0; stroke-opacity:1; 
stroke-linecap:round; stroke-linejoin:round;">
</g>
<g style="fill:#008400; fill-opacity:0.0; 
stroke:#008400; stroke-width:0; stroke-opacity:1; 
stroke-linecap:round; stroke-linejoin:round;">
</g>
<g style="fill:#008400; fill-opacity:1.0; 
stroke:#008400; stroke-width:100; stroke-opacity:1; 
stroke-linecap:round; stroke-linejoin:round;">
<circle cx="35000" cy="40000" r="200" /> 
</g>
<g style="fill:#008400; fill-opacity:1.0; 
stroke:#008400; stroke-width:0; stroke-opacity:1; 
stroke-linecap:round; stroke-linejoin:round;">
</g>
<g style="fill:#008400; fill-opacity:1.0; 
stroke:#008400; stroke-width:100; stroke-opacity:1; 
stroke-linecap:round; stroke-linejoin:round;">
<circle cx="35000" cy="36000" r="200" /> 
</g>
<g style="fill:#008400; fill-opacity:1.0; 
stroke:#008400; stroke-width:0; stroke-opacity:1; 
stroke-linecap:round; stroke-linejoin:round;">
</g>
<g style="fill:#008400; fill-opacity:1.0; 
stroke:#008400; stroke-width:100; stroke-opacity:1; 
stroke-linecap:round; stroke-linejoin:round;">
<circle cx="35000" cy="49000" r="200" /> 
</g> 
</svg>
